<svg width="30" height="27" viewBox="0 0 30 27" fill="none" xmlns="http://www.w3.org/2000/svg">
<path d="M14.7282 -0.000244141L18.4047 6.37895H11.0517L14.7282 -0.000244141Z" fill="#10BA01"/>
<path d="M14.7227 13.5829L11.0462 7.20372H18.3992L14.7227 13.5829Z" fill="#FF1619"/>
<path d="M14.7472 13.5391L18.4238 7.15991L22.1003 13.5391H14.7472Z" fill="#D00002"/>
<path d="M14.7472 13.5175H22.1003L18.4238 19.8967L14.7472 13.5175Z" fill="#AA0E0F"/>
<path d="M3.67645 20.4392L7.35294 26.8183H-6.10352e-05L3.67645 20.4392Z" fill="#C2E1FE"/>
<path d="M11.0406 20.4392L14.7171 26.8183H7.36403L11.0406 20.4392Z" fill="#1D91FE"/>
<path d="M18.4048 20.4392L22.0813 26.8183H14.7283L18.4048 20.4392Z" fill="#073DFF"/>
<path d="M25.769 20.4392L29.4456 26.8183H22.0926L25.769 20.4392Z" fill="#0C2683"/>
<path d="M22.087 26.8183L18.4104 20.4392H25.7634L22.087 26.8183Z" fill="#0329BA"/>
<path d="M14.7227 26.8183L11.0462 20.4392H18.3992L14.7227 26.8183Z" fill="#0075FF"/>
<path d="M7.35856 26.8183L3.68207 20.4392H11.0351L7.35856 26.8183Z" fill="#73B8FB"/>
<path d="M14.7171 13.5175L11.0406 19.8967L7.36403 13.5175H14.7171Z" fill="#FF908F"/>
<path d="M14.7171 13.5391H7.36403L11.0406 7.15991L14.7171 13.5391Z" fill="#FF6665"/>
</svg>
